<svg xmlns="http://www.w3.org/2000/svg" width="115" height="92" viewBox="0 0 114.81 91.12"><title>Years old glyph</title><path d="M91.61,80a3.71,3.71,0,0,1-3.66-3.66,3.78,3.78,0,0,1,3.66-4,3.85,3.85,0,0,1,4,4A3.78,3.78,0,0,1,91.61,80Z" transform="translate(-0.1 -0.44)"/><path d="M68.41,43C68.41,26.8,80,19,91.78,19s23.12,8.12,23.12,24c0,14.62-10.25,23.12-22.87,23.12C78.78,66.17,68.41,59.8,68.41,43Zm37.12-.87c0-13.75-3.75-21-14.5-21C79.91,21.17,77.66,32.3,77.66,44c0,12.5,3.25,20.12,13.87,20.12C103,64.17,105.53,54.92,105.53,42.17Z" transform="translate(-0.1 -0.44)"/><path d="M49.84,91.56c-2.62-.12-6.62-.25-10.87-.25-4.62,0-8.12.13-10.87.25v-.62c4.62-.87,6.25-1.37,6.25-11.37V60.81L9.22,10.44C6.22,4.56,5,2.19.1,1.06V.44C2.72.56,8.35.69,12.6.69,17.22.69,21,.56,23.72.44v.62c-4,.5-5.62,1.75-5.62,4,0,1.63.62,3.5,2.37,6.87l21,42.62L57,24.44c6.62-13,7.87-15,7.87-18.87,0-2.5-1.37-3.87-5.12-4.5V.44c2.75.12,4.5.25,9.12.25,4.25,0,6.87-.13,9.5-.25v.62c-5.87,1.25-5.25,1.75-17.5,25L43.59,58.94V79.56c0,10,1.63,10.5,6.25,11.37Z" transform="translate(-0.1 -0.44)"/></svg>